<svg width="32" height="32" viewBox="0 0 32 32" fill="none" xmlns="http://www.w3.org/2000/svg">
<path d="M3.36719 10.5469H5.67969V16.75C5.67969 17.7344 5.70833 18.3724 5.76562 18.6641C5.86458 19.1328 6.09896 19.5104 6.46875 19.7969C6.84375 20.0781 7.35417 20.2188 8 20.2188C8.65625 20.2188 9.15104 20.0859 9.48438 19.8203C9.81771 19.5495 10.0182 19.2188 10.0859 18.8281C10.1536 18.4375 10.1875 17.7891 10.1875 16.8828V10.5469H12.5V16.5625C12.5 17.9375 12.4375 18.9089 12.3125 19.4766C12.1875 20.0443 11.9557 20.5234 11.6172 20.9141C11.2839 21.3047 10.8359 21.6172 10.2734 21.8516C9.71094 22.0807 8.97656 22.1953 8.07031 22.1953C6.97656 22.1953 6.14583 22.0703 5.57812 21.8203C5.01562 21.5651 4.57031 21.237 4.24219 20.8359C3.91406 20.4297 3.69792 20.0052 3.59375 19.5625C3.44271 18.9062 3.36719 17.9375 3.36719 16.6562V10.5469ZM14.9453 22V10.5469H18.6562C20.0625 10.5469 20.9792 10.6042 21.4062 10.7188C22.0625 10.8906 22.612 11.2656 23.0547 11.8438C23.4974 12.4167 23.7188 13.1589 23.7188 14.0703C23.7188 14.7734 23.5911 15.3646 23.3359 15.8438C23.0807 16.3229 22.7552 16.7005 22.3594 16.9766C21.9688 17.2474 21.5703 17.4271 21.1641 17.5156C20.612 17.625 19.8125 17.6797 18.7656 17.6797H17.2578V22H14.9453ZM17.2578 12.4844V15.7344H18.5234C19.4349 15.7344 20.0443 15.6745 20.3516 15.5547C20.6589 15.4349 20.8984 15.2474 21.0703 14.9922C21.2474 14.737 21.3359 14.4401 21.3359 14.1016C21.3359 13.6849 21.2135 13.3411 20.9688 13.0703C20.724 12.7995 20.4141 12.6302 20.0391 12.5625C19.763 12.5104 19.2083 12.4844 18.375 12.4844H17.2578ZM26.4609 19.0469L25.8906 13.2344V10.5469H28.2656V13.2344L27.7031 19.0469H26.4609ZM25.9844 22V19.8047H28.1797V22H25.9844Z" fill="black"/>
</svg>
